<svg fill="none" height="43" viewBox="0 0 128 43" width="128" xmlns="http://www.w3.org/2000/svg"><g fill="#291507"><path d="m6.9375 34.6875c-.875-.0313-1.72656-.2734-2.55469-.7266-.8125-.4375-1.53125-1.0703-2.15625-1.8984-.60937-.8437-1.08594-1.875-1.429685-3.0937-.34375-1.2188-.484375-2.625-.421875-4.2188s.34375-3.0078.84375-4.2422c.51563-1.2344 1.14844-2.2578 1.89844-3.0703.75-.8281 1.57031-1.4375 2.46093-1.8281.90626-.3906 1.79688-.5391 2.67188-.4453.53125.0625 1 .2109 1.40625.4453s.75785.5234 1.05465.8672c.2969.3281.5469.6875.75 1.0781.2032.375.3672.7422.4922 1.1015.0938.0938.1953.1407.3047.1407.2969.0156.5625-.2031.7969-.6563.25-.4687.4609-1.2344.6328-2.2968l.6563.0703c-.1407.5312-.2969 1.1484-.4688 1.8515-.1562.6875-.3047 1.3985-.4453 2.1328-.125.7344-.2344 1.461-.3281 2.1797-.0782.7188-.1016 1.3672-.0704 1.9453-.2343-.0937-.4531-.1562-.6562-.1875-.2031-.0468-.3906-.0781-.5625-.0937-.1875-.0156-.3594-.0156-.5156 0 .0312-.9688 0-1.8984-.0938-2.7891-.0781-.8906-.2343-1.6719-.4687-2.3437-.2344-.6875-.5469-1.2422-.93752-1.6641-.375-.4219-.84376-.6562-1.40626-.7031-.5-.0469-1.03906.0625-1.61718.3281-.57813.25-1.125.7109-1.64063 1.3828-.51562.6563-.96093 1.5391-1.33593 2.6485-.375 1.1093-.60938 2.4922-.70313 4.1484-.04687.875-.01563 1.7969.09375 2.7656.10938.9688.32812 1.8672.65625 2.6953.32813.8125.77344 1.4922 1.33594 2.0391.5625.5312 1.27343.7891 2.13281.7734.65625-.0468 1.26562-.2187 1.82812-.5156.48438-.2656.96098-.664 1.42968-1.1953.4688-.5313.8047-1.2969 1.0078-2.2969l.7735.4688c-.125.4062-.3125.914-.5625 1.5234-.25.5938-.5938 1.1719-1.0313 1.7344-.4219.5625-.95311 1.0312-1.59374 1.4062-.625.3907-1.36718.5704-2.22656.5391zm19.0547-2.5547c-.0469.2031-.125.4297-.2344.6797-.1094.2344-.2656.4453-.4687.6328-.2032.2031-.4532.3516-.75.4453-.2813.1094-.6172.1172-1.0079.0235-.3906-.0938-.7031-.3125-.9374-.6563-.2188-.3437-.375-.7812-.4688-1.3125-.1406.2188-.3203.4531-.5391.7031-.2031.2344-.4531.4454-.75.6328-.2812.2032-.6093.3594-.9843.4688-.3594.125-.7578.1719-1.1954.1406-.5937-.0468-1.125-.2109-1.5937-.4922-.4531-.2656-.8359-.6093-1.1484-1.0312-.3125-.4375-.5469-.9297-.7032-1.4766-.1406-.5468-.1797-1.1172-.1171-1.7109.0624-.5938.2187-1.1016.4687-1.5235.2656-.4218.5937-.7578.9844-1.0078.3906-.2656.8359-.4453 1.3359-.539.5-.0938 1.0156-.1172 1.5469-.0703.7031.0781 1.2891.289 1.7578.6328.4687.3281.8281.6953 1.0781 1.1015.0782-.7187.1016-1.4843.0703-2.2968-.0312-.8282-.1562-1.5782-.375-2.25-.2187-.6875-.5547-1.25-1.0078-1.6875-.4531-.4532-1.0703-.6719-1.8515-.6563-.5469 0-1 .1016-1.3594.3047-.3438.1875-.625.4141-.8438.6797-.2031.2656-.3437.539-.4218.8203-.0782.2656-.1172.4766-.1172.6328 0 .1563.0468.3359.1406.5391.0938.1875.2266.3672.3984.539.1719.1563.375.2813.6094.375.2344.0938.5.1172.7969.0704.2031-.0313.3828-.1016.5391-.211.1562-.1094.2812-.2344.375-.375.0937-.1406.1562-.289.1874-.4453.0469-.1563.0704-.3047.0704-.4453 0-.1563-.0469-.2891-.1407-.3984-.0937-.125-.2031-.2188-.3281-.2813s-.2656-.0781-.4219-.0469c-.1562.0156-.2968.086-.4218.211.1406-.0157.2812.0156.4218.0937.1407.0625.211.2031.211.4219 0 .1719-.0703.3047-.211.3984-.1406.0782-.2968.1094-.4687.0938s-.3281-.086-.4688-.211c-.1406-.1406-.2109-.3515-.2109-.6328 0-.2656.1094-.4922.3281-.6797.2344-.1875.5-.2812.7969-.2812.3594 0 .6875.1406.9844.4219.3125.2812.4687.6718.4687 1.1718 0 .1719-.0468.3594-.1406.5625-.0781.1875-.2031.3672-.375.5391s-.3984.3203-.6797.4453c-.2812.1094-.6094.1641-.9844.1641s-.7109-.0703-1.0078-.211c-.2969-.1562-.5469-.3437-.75-.5625-.2031-.2343-.3593-.4843-.4687-.75-.0938-.2812-.1406-.5468-.1406-.7968s.0781-.5625.2343-.9375c.1563-.3907.3985-.7578.7266-1.1016.3437-.3438.7656-.6406 1.2656-.8906.5156-.25 1.125-.375 1.8281-.375 1.8907 0 3.1954.664 3.9141 1.9922.7187 1.3125.8359 3.2734.3516 5.8828-.1875 1.0468-.2891 1.8984-.3047 2.5547-.0156.6562.0234 1.1797.1172 1.5703.0937.3906.2265.664.3984.8203.1875.1562.3828.25.5859.2812.1719.0313.336.0157.4922-.0468.125-.0313.2422-.1016.3516-.211.125-.125.2109-.3125.2578-.5625zm-3.961-1.1953c-.0156-.5625.0079-1.1563.0704-1.7813-.125-.4843-.3828-.9296-.7735-1.3359-.375-.4219-.8047-.6719-1.289-.75-.3594-.0625-.7344-.0547-1.125.0235-.375.0624-.711.2031-1.0079.4218-.2968.2032-.5312.4922-.7031.8672s-.2343.836-.1875 1.3828c.0782.8438.3125 1.4844.7032 1.9219.4062.4375 1 .6328 1.7812.5859.5938-.0312 1.0938-.1796 1.5-.4453.4219-.2812.7656-.5781 1.0312-.8906zm9.5391 1.2891c.3594 0 .6953-.125 1.0078-.375s.5313-.6719.6563-1.2657l.4922.1875c-.0469.375-.1954.7578-.4454 1.1485-.25.375-.5703.6953-.9609.9609s-.8359.4375-1.3359.5156c-.4844.0782-.9844 0-1.5-.2343-.5625-.2657-.9688-.6094-1.2188-1.0313s-.4062-.9062-.4687-1.4531c-.0625-.5625-.0703-1.1641-.0235-1.8047.0469-.6562.0704-1.3359.0704-2.0391 0-.4062-.0079-.8828-.0235-1.4297 0-.5624-.0156-1.1562-.0469-1.7812-.0156-.625-.0468-1.2656-.0937-1.9219-.0469-.6719-.0938-1.3281-.1406-1.9687-.5313.0625-1.0391.1406-1.5235.2344-.4687.0781-.8672.1796-1.1953.3046-.0156-.1406-.0156-.25 0-.3281 0-.0781.0078-.1484.0235-.2109 0-.0782 0-.1563 0-.2344 0-.0938-.0157-.2188-.0469-.375.375-.0312.789-.0625 1.2422-.0938.4687-.0312.9453-.0624 1.4297-.0937-.0157-.2187-.0313-.4297-.0469-.6328-.0157-.2188-.0391-.4297-.0703-.6328-.0782-.7344-.2266-1.3203-.4454-1.7578-.2031-.4375-.4296-.7735-.6796-1.0079-.25-.2343-.4844-.3906-.7032-.4687-.2187-.0937-.3828-.1563-.4922-.1875l.0704-.4453c.2968.125.664.2109 1.1015.2578.4375.0313.8907.0313 1.3594 0 .4844-.0469.9531-.125 1.4063-.2344.4687-.1093.875-.25 1.2187-.4219-.1563.4376-.2969 1.1329-.4219 2.086-.1094.9531-.2031 2.0625-.2812 3.3281.8125-.0469 1.3984-.1094 1.7578-.1875-.0781.0938-.1172.25-.1172.4688 0 .2031.0234.3906.0703.5625-.2656-.0313-.5469-.0469-.8437-.0469-.2969-.0156-.6016-.0234-.9141-.0234-.0469.9062-.0781 1.8515-.0937 2.8359-.0157.9844-.0079 1.9609.0234 2.9297.0469.9531.1094 1.8906.1875 2.8125.0937.9062.2109 1.7422.3515 2.5078.125.5469.3438.9375.6563 1.1719.3125.2343.6484.3593 1.0078.375zm22.2656-14.4141c-.3281.2187-.6484.4609-.9609.7266-.3125.2656-.5859.6093-.8203 1.0312s-.4141.9531-.5391 1.5938c-.125.625-.1562 1.4218-.0937 2.3906.0312.6406.0625 1.3359.0937 2.0859.0469.7344.0547 1.4766.0235 2.2266-.0313.75-.1172 1.4766-.2579 2.1797-.1406.6875-.375 1.3047-.7031 1.8515-.3281.5469-.7656.9922-1.3125 1.336-.5468.3437-1.2344.5312-2.0625.5625-.6093.0312-1.1484-.0547-1.6172-.2578-.4531-.2032-.8515-.4766-1.1953-.8203-.3281-.3594-.6015-.7657-.8203-1.2188-.2187-.4688-.3984-.9531-.5391-1.4531-.2343.6406-.5156 1.2343-.8437 1.7812-.3125.5469-.7266.9844-1.2422 1.3125-.5.3438-1.1094.5391-1.8281.586-.7031.0625-1.5547-.0782-2.5547-.4219-.7344-.25-1.3125-.6094-1.7344-1.0781-.4219-.4844-.7343-1.0235-.9375-1.6172-.2031-.6094-.3203-1.2422-.3515-1.8985-.0313-.6718-.0235-1.3125.0234-1.9218.0469-.625.1172-1.1953.2109-1.711.0938-.5156.1641-.9297.211-1.2422.1562-1 .2812-1.9453.375-2.8359.1094-.9062.125-1.7109.0468-2.4141-.0781-.7187-.2812-1.3125-.6093-1.7812-.3125-.4844-.8125-.8047-1.5-.9609l.1172-.4688c.2968.0469.6484.1016 1.0547.1641.4062.0625.8281.1171 1.2656.164.4375.0313.8672.0469 1.289.0469.4375-.0156.8282-.0625 1.1719-.1406-.0781.6094-.1875 1.3672-.3281 2.2734-.125.8906-.25 1.8438-.375 2.8594s-.2422 2.0547-.3516 3.1172c-.0937 1.0468-.1484 2.0312-.164 2.9531-.0469 1.8594.164 3.2187.6328 4.0781.4844.8594 1.3281 1.2813 2.5312 1.2656.6094-.0156 1.1016-.2812 1.4766-.7968s.664-1.1563.8672-1.9219c.2187-.7656.3672-1.5781.4453-2.4375.0781-.875.1328-1.6719.1641-2.3906.0156-.7188.0156-1.4141 0-2.086-.0157-.6875-.0626-1.3203-.1407-1.8984s-.1875-1.0938-.3281-1.5469c-.125-.4687-.2812-.8437-.4688-1.125.4376-.0156.8126-.0078 1.125.0235.3126.0312.6016.0703.8672.1172.2813.0312.5704.0546.8672.0703.2969.0156.6485-.0157 1.0547-.0938-.1719.4844-.3281.9844-.4687 1.5-.1407.5156-.2657 1.0781-.375 1.6875-.0938.6094-.1719 1.2891-.2344 2.0391-.0469.7343-.0703 1.5703-.0703 2.5078.0156.9375.0625 1.7891.1406 2.5547.0937.7656.25 1.414.4687 1.9453.2344.5156.5469.8984.9376 1.1484.4062.2344.9296.2891 1.5703.1641.6406-.1406 1.1406-.461 1.5-.961.3593-.5.6171-1.1171.7734-1.8515.1719-.7344.2656-1.5547.2813-2.4609.0312-.9219.0312-1.8594 0-2.8126-.0313-.9687-.086-1.789-.1641-2.4609-.0781-.6875-.2031-1.25-.375-1.6875-.1563-.4375-.3594-.7656-.6094-.9844-.25-.2343-.5547-.3828-.9141-.4453l.0704-.5156c.9531.1563 1.9375.2109 2.9531.1641 1.0156-.0625 2.0781-.2422 3.1875-.5391zm0 15.0703c.3594-.125.6563-.289.8907-.4922.2343-.2031.414-.4062.539-.6094.1563-.2343.2578-.4765.3047-.7265.3438-1.5938.5156-3.1094.5156-4.5469 0-1.4531-.1093-2.6953-.3281-3.7266-.0625-.3281-.1797-.6328-.3516-.914-.1406-.2344-.3359-.4531-.5859-.6563-.25-.2187-.5703-.3593-.9609-.4218l-.0235-.375c.3125.0312.6016.0547.8672.0703h.7266.6562c.1875.0156.375.0234.5625.0234.1719.0156.3438.0234.5157.0234.1875 0 .3671.0157.539.0469-.0469.5625-.0859 1.1407-.1172 1.7344-.0312.5781-.0547 1.1016-.0703 1.5703-.0312.5469-.0468 1.0781-.0468 1.5938-.0313.5781-.0547 1.2109-.0704 1.8984-.0156.6719-.0078 1.3125.0235 1.9219.0312.6093.0859 1.1484.164 1.6172.0782.4531.2032.75.375.8906.0938.0625.2188.125.375.1875.125.0625.2891.125.4922.1875.2188.0625.4844.125.7969.1875l.0234.3984c-.3125-.0156-.6172-.0156-.914 0-.2813 0-.5313 0-.75 0-.2656.0156-.5156.0235-.75.0235-.3282.0156-.6797.0468-1.0547.0937-.3125.0313-.6641.0703-1.0547.1172s-.7656.1016-1.125.1641zm2.4141-14.039c-.4844.0312-.8594-.0782-1.125-.3282-.2656-.2656-.4141-.5625-.4453-.8906-.0313-.3281.0547-.6328.2578-.9141.2187-.2968.5625-.4765 1.0313-.539.4843-.0625.8671.039 1.1484.3047.2969.2656.4687.5703.5156.914.0469.3282-.039.6485-.2578.961-.2188.2968-.5938.4609-1.125.4922zm15.0938 20.0859c-.5469 0-1.086-.0859-1.6172-.2578-.5313-.1719-.9922-.461-1.3828-.8672-.3907-.3906-.6797-.9219-.8672-1.5938-.1875-.6562-.211-1.4765-.0704-2.4609.1094-.75.1954-1.4844.2579-2.2031.0781-.7344.1015-1.4063.0703-2.0157-.0313-.625-.1406-1.1718-.3282-1.6406-.1874-.4844-.4921-.8594-.914-1.125-.3906-.2656-.8984-.4218-1.5234-.4687s-1.3829.0625-2.2735.3281c.0313.6719.0703 1.3047.1172 1.8984.0625.5938.1328 1.125.2109 1.5938.0469.4687.1328.875.2578 1.2187.0938.2969.2266.5625.3985.7969s.3906.3203.6562.2578l-.164.586c-.3125-.1094-.6719-.1875-1.0781-.2344-.3907-.0469-.8126-.0547-1.2657-.0234-.4531.0312-.9219.1015-1.4062.2109-.4688.1094-.9219.2734-1.3594.4922l-.1172-.3985c.2344-.1718.4453-.3281.6328-.4687s.3516-.3203.4922-.5391c.1563-.2187.2891-.5.3985-.8437.1093-.3438.2031-.8047.2812-1.3828.0781-.5782.1719-1.3282.2812-2.25.125-.9375.2344-1.9453.3282-3.0235.0937-1.0781.1562-2.1875.1875-3.3281.0312-1.1406 0-2.2031-.0938-3.1875-.0937-.7344-.2343-1.3984-.4219-1.9922-.0781-.25-.1796-.4922-.3046-.7266-.1094-.25-.2422-.4687-.3985-.6562-.1562-.2031-.3359-.3672-.539-.4922-.1875-.125-.3985-.1953-.6329-.2109v-.3516c.2969.0469.6329.1016 1.0079.1641.3906.0468.8281.0781 1.3125.0937.5.0157 1.0546-.0078 1.664-.0703.625-.0781 1.3203-.2266 2.086-.4453v.4687c-.2813.1563-.5391.3204-.7735.4922-.2343.1563-.4531.3828-.6562.6797-.1875.2969-.3516.6875-.4922 1.1719s-.2422 1.125-.3047 1.9219c-.0781.75-.1641 1.6172-.2578 2.6015-.0781.9844-.1172 2-.1172 3.0469v1.1485c0 .375.0156.75.0469 1.125.75-.2657 1.4219-.6094 2.0156-1.0313.5937-.4375 1.0937-.8828 1.5-1.3359.4063-.4688.7187-.9219.9375-1.3594s.3281-.8125.3281-1.125c-.0312-.2344-.0859-.4453-.164-.6328-.0782-.1563-.1953-.2969-.3516-.4219-.1563-.1406-.3672-.2187-.6328-.2344l.0703-.5859c.9688.125 1.8984.1797 2.7891.164.8906-.0312 1.7812-.2421 2.6718-.6328l.0938.4688c-.2344.1094-.4453.2187-.6328.3281-.1875.0938-.3672.2109-.5391.3516-.1562.1406-.3125.3281-.4687.5625-.1563.2187-.3282.5078-.5157.8672-.1406.2968-.3281.6406-.5625 1.0312-.2343.3906-.5156.7813-.8437 1.1719-.3125.375-.6797.7344-1.1016 1.0781-.4062.3281-.8515.5938-1.3359.7969 1.25-.0313 2.2265.2969 2.9297.9844.7031.6718 1.1015 1.789 1.1953 3.3515.0312.7969-.0391 1.6016-.2109 2.4141-.1719.7969-.3204 1.5469-.4454 2.25-.125.7187-.1718 1.3594-.1406 1.9219.0313.5781.2656 1.0312.7031 1.3593.4219.3282.836.5235 1.2422.586.4219.0781.8125.0469 1.1719-.0938.3594-.125.6719-.3437.9375-.6562.2813-.3125.5-.6797.6563-1.1016.1406-.4219.2031-.7891.1874-1.1015-.0156-.2969-.0859-.5469-.2109-.75-.125-.1876-.2891-.3282-.4922-.4219-.1875-.0938-.3906-.1407-.6093-.1407-.4376 0-.8282.1641-1.1719.4922-.3438.3282-.5313.7578-.5625 1.2891-.0156.1875.0078.3437.0703.4687s.1406.2188.2344.2813c.1093.0781.2187.1328.3281.1641.125.0312.2422.0312.3516 0 .2031-.0313.4062-.1485.6093-.3516.2188-.2031.3203-.4453.3047-.7266-.0937.0625-.2109.1172-.3516.1641-.1406.0625-.2734.0937-.3984.0937-.1094 0-.2109-.039-.3047-.1171-.0781-.0625-.1172-.1875-.1172-.375 0-.2188.0782-.3907.2344-.5157.1719-.1093.3594-.164.5625-.164s.3906.0625.5625.1875c.1719.1406.2578.3437.2578.6093.0157.5157-.1562.9454-.5156 1.2891-.3437.3594-.75.5391-1.2187.5391-.3438 0-.6172-.1016-.8204-.3047-.1875-.1875-.3203-.4297-.3984-.7266-.0625-.2812-.0625-.5937 0-.9375.0781-.3437.2188-.664.4219-.9609.2031-.2813.4687-.5235.7969-.7266.3437-.1875.75-.2812 1.2187-.2812.3281 0 .6016.0625.8203.1875.2188.125.3906.2812.5156.4687.1407.2031.2422.4219.3047.6563s.0938.4687.0938.7031c.0156.4531-.0469.8828-.1875 1.2891-.1406.4218-.3516.7968-.6328 1.125-.2813.3281-.6328.5859-1.0547.7734-.4219.2031-.9063.3047-1.4531.3047zm.3515-6.0469c.3594-.125.6563-.289.8906-.4922.2344-.2031.4141-.4062.5391-.6094.1562-.2343.2578-.4765.3047-.7265.3437-1.5938.5156-3.1094.5156-4.5469 0-1.4531-.1094-2.6953-.3281-3.7266-.0625-.3281-.1797-.6328-.3516-.914-.1406-.2344-.3359-.4531-.5859-.6563-.25-.2187-.5703-.3593-.9609-.4218l-.0235-.375c.3125.0312.6016.0547.8672.0703h.7266.6562c.1875.0156.375.0234.5625.0234.1719.0156.3438.0234.5156.0234.1875 0 .3672.0157.5391.0469-.0469.5625-.0859 1.1407-.1172 1.7344-.0312.5781-.0547 1.1016-.0703 1.5703-.0312.5469-.0469 1.0781-.0469 1.5938-.0312.5781-.0547 1.2109-.0703 1.8984-.0156.6719-.0078 1.3125.0234 1.9219.0313.6093.086 1.1484.1641 1.6172.0781.4531.2031.75.375.8906.0938.0625.2188.125.375.1875.125.0625.2891.125.4922.1875.2187.0625.4844.125.7969.1875l.0234.3984c-.3125-.0156-.6172-.0156-.914 0-.2813 0-.5313 0-.75 0-.2657.0156-.5157.0235-.75.0235-.3282.0156-.6797.0468-1.0547.0937-.3125.0313-.6641.0703-1.0547.1172s-.7656.1016-1.125.1641zm2.4141-14.039c-.4844.0312-.8594-.0782-1.125-.3282-.2656-.2656-.4141-.5625-.4453-.8906-.0313-.3281.0547-.6328.2578-.9141.2187-.2968.5625-.4765 1.0312-.539.4844-.0625.8672.039 1.1485.3047.2968.2656.4687.5703.5156.914.0469.3282-.0391.6485-.2578.961-.2188.2968-.5938.4609-1.125.4922z"/><path d="m120.65 25.886-1.04 3.1207-1.04 3.9529s-2.705 1.4564-2.913.4161c-.208-1.0402 1.04-1.2483 1.04-1.2483l.416-2.0804-3.12-5.6173z"/><path d="m120.65 25.886-1.04 3.1207-1.04 3.9529s-2.705 1.4564-2.913.4161c-.208-1.0402 1.04-1.2483 1.04-1.2483l.416-2.0804-3.12-5.6173z"/><path d="m102.966 24.6379-1.872 8.53s-1.4567.8322-2.4969.4161c-1.0403-.4161.6241-1.4564.6241-1.4564s-.6241-5.2011-3.7448-5.8253c-3.1207-.6241 7.4896-1.6644 7.4896-1.6644z"/><path d="m102.966 24.6379-1.872 8.53s-1.4567.8322-2.4969.4161c-1.0403-.4161.6241-1.4564.6241-1.4564s-.6241-5.2011-3.7448-5.8253c-3.1207-.6241 7.4896-1.6644 7.4896-1.6644z"/><path d="m90.6913 14.6517s4.1609 1.4563 7.9058.6241c0 0 7.2819-1.0402 7.9059-1.2483.624-.208 7.698-.6241 11.442 0 0 0 10.403-8.11381 4.578-11.65061 0 0-2.497 1.24828-3.121.41609-.234-.31207-.117-.71191.12-1.08981.269-.41062.633-.749678 1.062-.987867s.91-.368345 1.4-.379206c2.174-.081394 6.07.699813 4.302 7.807843-.504 1.96056-1.433 3.78646-2.72 5.34866-.948 1.168-1.928 2.7844-1.46 4.0717.833 2.2886 1.041 5.8254 1.041 5.8254l2.912 4.3689s1.665 5.4093 1.665 5.6173c0 .2081-2.264.6494-2.705.2081-.416-.4161.624-1.2483.624-1.2483s-.832-1.6644-2.288-2.0805c-1.457-.4161-5.41-1.8724-6.034-2.4966-.624-.6241-13.939-4.3689-17.6837-.8321-2.1015 2.0076-4.3249 3.8836-6.6575 5.6172 0 0-1.0402 1.4564-2.2885 1.4564s-1.4563-1.8725 0-2.0805c1.4563-.2081 3.5368-5.2012 3.5368-5.2012s.6241-3.7448-2.4966-4.369c-1.7203-.344-2.7452-.372-3.3186-.3278-.229.0191-.4595-.0082-.6777-.0802-.2182-.0719-.4198-.1871-.5926-.3385-.3712-.357-.7038-.7522-.9921-1.179-.0761-.1084-.1251-.2334-.1429-.3646-.0179-.1312-.0041-.2648.0403-.3896.2771-.7563.5077-1.5289.6905-2.3134.208-1.0402 1.8724-1.8724 1.8724-1.8724s.4161-2.9127 1.0403-2.0805c.3198.4378.6672.8547 1.0402 1.2483z"/><path d="m90.6913 14.6517s4.1609 1.4563 7.9058.6241c0 0 7.2819-1.0402 7.9059-1.2483.624-.208 7.698-.6241 11.442 0 0 0 10.403-8.11381 4.578-11.65061 0 0-2.497 1.24828-3.121.41609-.234-.31207-.117-.71191.12-1.08981.269-.41062.633-.749678 1.062-.987867s.91-.368345 1.4-.379206c2.174-.081394 6.07.699813 4.302 7.807843-.504 1.96056-1.433 3.78646-2.72 5.34866-.948 1.168-1.928 2.7844-1.46 4.0717.833 2.2886 1.041 5.8254 1.041 5.8254l2.912 4.3689s1.665 5.4093 1.665 5.6173c0 .2081-2.264.6494-2.705.2081-.416-.4161.624-1.2483.624-1.2483s-.832-1.6644-2.288-2.0805c-1.457-.4161-5.41-1.8724-6.034-2.4966-.624-.6241-13.939-4.3689-17.6837-.8321-2.1015 2.0076-4.3249 3.8836-6.6575 5.6172 0 0-1.0402 1.4564-2.2885 1.4564s-1.4563-1.8725 0-2.0805c1.4563-.2081 3.5368-5.2012 3.5368-5.2012s.6241-3.7448-2.4966-4.369c-1.7203-.344-2.7452-.372-3.3186-.3278-.229.0191-.4595-.0082-.6777-.0802-.2182-.0719-.4198-.1871-.5926-.3385-.3712-.357-.7038-.7522-.9921-1.179-.0761-.1084-.1251-.2334-.1429-.3646-.0179-.1312-.0041-.2648.0403-.3896.2771-.7563.5077-1.5289.6905-2.3134.208-1.0402 1.8724-1.8724 1.8724-1.8724s.4161-2.9127 1.0403-2.0805c.3198.4378.6672.8547 1.0402 1.2483z"/></g></svg>